<svg width="20" height="20" viewBox="0 0 20 20" fill="none" xmlns="http://www.w3.org/2000/svg">
<path d="M19.1569 7.41927C19.0993 7.24946 18.9932 7.10025 18.8517 6.99006C18.7102 6.87987 18.5395 6.81353 18.3608 6.79922L13.1316 6.38371L10.8688 1.3747C10.7967 1.21337 10.6795 1.07634 10.5313 0.980156C10.3831 0.883971 10.2102 0.832739 10.0335 0.832642C9.85681 0.832545 9.68386 0.883587 9.53554 0.979609C9.38721 1.07563 9.26985 1.21253 9.19761 1.37378L6.93479 6.38371L1.70564 6.79922C1.52995 6.81314 1.36198 6.87738 1.22185 6.98425C1.08171 7.09113 0.975328 7.23612 0.915433 7.40187C0.855538 7.56762 0.844664 7.74712 0.884111 7.91889C0.923559 8.09066 1.01166 8.24743 1.13787 8.37044L5.00218 12.1375L3.6355 18.0555C3.594 18.2347 3.6073 18.4221 3.67367 18.5936C3.74004 18.7651 3.85643 18.9127 4.00771 19.0172C4.159 19.1217 4.33821 19.1783 4.52208 19.1797C4.70595 19.1811 4.886 19.1272 5.03887 19.025L10.0332 15.6955L15.0275 19.025C15.1838 19.1288 15.368 19.1822 15.5555 19.1781C15.743 19.1739 15.9248 19.1125 16.0763 19.002C16.2278 18.8916 16.3419 18.7373 16.4032 18.5601C16.4644 18.3828 16.47 18.1911 16.419 18.0106L14.7414 12.1403L18.9019 8.39612C19.1744 8.15031 19.2743 7.7669 19.1569 7.41927Z" fill="#F3CD03"/>
</svg>
